<svg id="Layer_2" data-name="Layer 2" xmlns="http://www.w3.org/2000/svg" viewBox="0 0 425.43 425.63"><defs><style>.cls-1{fill:#be1e2d;}</style></defs><title>stamp-logo</title><path class="cls-1" d="M77.9,460.48c-6.86,0-19.25-1.05-28.36-9.71-7-6.63-10.82-16.76-10.8-28.53l.41-347.55,0-.35A44.28,44.28,0,0,1,54.82,45l.85-.68a45.17,45.17,0,0,1,25.81-9.49H423l.27,0c12,.92,21.57,4.82,28.56,11.58A41,41,0,0,1,464,74l.14,350.89-.07.48A39.57,39.57,0,0,1,451.74,449h0a41.53,41.53,0,0,1-28.31,10.67H360.2c-148.8,0-256.3,0-278.71.77h-.2C80.43,460.44,79.27,460.48,77.9,460.48Zm-24.75-385-.41,346.81c0,4.57.82,13,6.44,18.37,6.68,6.34,17.9,5.93,21.6,5.8H81c22.67-.82,130.28-.8,279.22-.78h63.39a27.83,27.83,0,0,0,18.67-7,26,26,0,0,0,7.91-14.79L450,74a27,27,0,0,0-7.89-17.47c-4.55-4.39-11.16-7-19.66-7.67H82.07A31.37,31.37,0,0,0,64.28,55.4l-.55.44A30.08,30.08,0,0,0,53.15,75.44Z" transform="translate(-38.74 -34.86)"/><path class="cls-1" d="M101.35,125.75c-15.66,0-29.68-11.36-31.53-26.23A29.49,29.49,0,0,1,77.6,76.24a32.52,32.52,0,0,1,24.89-10.73L220.21,66a29.61,29.61,0,0,1,23.93,49.85,29.91,29.91,0,0,1-21.42,9.43h-.05l-118.21.36C103.41,125.7,102.38,125.75,101.35,125.75Zm.48-46.25A18.62,18.62,0,0,0,88,85.63,15.57,15.57,0,0,0,83.71,97.8c.93,7.46,9.21,15,19.62,13.84l.73,0,118.55-.36a15.7,15.7,0,0,0,11.33-5,15.41,15.41,0,0,0-1.13-22.42,15.69,15.69,0,0,0-11.73-3.87l-.31,0-118.52-.44Z" transform="translate(-38.74 -34.86)"/><path class="cls-1" d="M65.71,435.5c-.07-14.47-.1-27.81-.13-39.92,0-21.71-.08-38.86-.33-51.91v-.13c-.13-6.83-.41-21,9.36-30.71,4.67-4.63,10.81-7.4,18.24-8.24l.57,0,30.36-.95a11.1,11.1,0,0,0,8-3.85,21.11,21.11,0,0,0,5.06-14.93c-.4-8.49-6.26-17.27-15.4-17.27H65.88v-14h55.59c15.68,0,28.59,13.45,29.38,30.62a35.09,35.09,0,0,1-8.78,25.11,25,25,0,0,1-17.87,8.32l-30,.94a16.19,16.19,0,0,0-9.7,4.23c-5.5,5.45-5.31,15.24-5.21,20.49v.14c.25,13.17.29,30.37.33,52.15,0,12.1.06,25.43.13,39.88Z" transform="translate(-38.74 -34.86)"/><path class="cls-1" d="M197.67,435.4c-15.09,0-27.58-13.33-28.5-30.47-.51-9.57,2.71-19.14,8.61-25.61a23.82,23.82,0,0,1,16.91-8.13L223.45,370a14.86,14.86,0,0,0,9-4.23c5.25-5.55,5-15.44,4.84-20.76v-.13c-.36-13.22-.55-30.49-.79-52.35-.13-12.14-.28-25.52-.47-40l14-.19c.19,14.51.34,27.9.47,40.05.24,21.8.43,39,.79,52.12v.14c.19,6.82.58,21-8.67,30.76-4.48,4.74-10.43,7.61-17.66,8.53l-.59.05-29.09,1.21a10,10,0,0,0-7.13,3.57c-3.38,3.7-5.29,9.62-5,15.44.51,9.52,7,17.21,14.53,17.21h.09l53.29-.48.12,14-53.28.48Z" transform="translate(-38.74 -34.86)"/><path class="cls-1" d="M122.16,435.5c-.11-20.21,0-46.88.22-71.36a27.49,27.49,0,0,1,28.12-28.38l15.19-.28a17.37,17.37,0,0,0,9.59-5.1,17.91,17.91,0,0,0,4.7-12.15V252.42h14v65.74a31.11,31.11,0,0,1-26.63,31.23l-.45.07-16.46.3h-.16a13.48,13.48,0,0,0-13.9,14v.34c-.25,24.46-.33,51.11-.22,71.29Z" transform="translate(-38.74 -34.86)"/><path class="cls-1" d="M222.28,95.62c0-3.74-2.15-6.79-4.84-7v0h-117c-2.77.07-5,3.17-5,7s2.23,6.93,5,7h117C220.13,102.42,222.28,99.37,222.28,95.62Z" transform="translate(-38.74 -34.86)"/><path class="cls-1" d="M192.17,225.12a10.76,10.76,0,0,1-5.69-3,7.31,7.31,0,0,1-2-5.27V191.34h55v0a7,7,0,0,0,0-14H168.27v-7.1h71.22v0a7,7,0,0,0,0-14H168.27v-6h72v0a7,7,0,0,0,0-14v0H79.71a7,7,0,0,0,0,14h76v6H78.89a7,7,0,0,0,0,14h76.8v7.1H78.89a7,7,0,0,0,0,14h61.4V216l0,.42a7.38,7.38,0,0,1-2,5.26,10.73,10.73,0,0,1-5.69,3H70.77v15h63l.53-.08a25.47,25.47,0,0,0,15-7.7,22.28,22.28,0,0,0,6-16V191.34h14.26v24.91a22.35,22.35,0,0,0,6,16.05,25.44,25.44,0,0,0,15,7.7l.53.08h63v-15Z" transform="translate(-38.74 -34.86)"/><path class="cls-1" d="M428.76,152.29c.25-5.58-.32-19.28-10.39-31.12A40.37,40.37,0,0,0,387.59,107l-32.3-.47.22-25H412.2v0c3-.18,5.32-3.23,5.32-7s-2.36-6.8-5.32-7v0H283.64c-3,.07-5.49,3.17-5.49,7s2.45,6.92,5.49,7H341.5l-.21,25-33.21.49a40.42,40.42,0,0,0-30.78,14.21c-10.07,11.85-10.64,25.54-10.39,31.12l-.74,68.15,14,.15.74-68.35V152l0-.22c-.15-2.93-.09-13.14,7.07-21.57A26.52,26.52,0,0,1,308,121h.12l33.09-.49-.58,66.14h0c.16,2.59,3.2,4.68,6.94,4.71s6.82-2,7-4.59h0l.58-66.25,32.33.47h.22a26.47,26.47,0,0,1,20,9.27c7.15,8.42,7.22,18.64,7.06,21.57V152l.75,68.57,14-.15Z" transform="translate(-38.74 -34.86)"/><path class="cls-1" d="M330.16,153.77a6.41,6.41,0,0,0,3.95-8.47,7.34,7.34,0,0,0-8.59-4.7c-11.65,4-23,8.5-34.66,12.45-3.75,1.89-5.08,5.36-3.58,9.09s4.65,4.89,8.85,3.9" transform="translate(-38.74 -34.86)"/><path class="cls-1" d="M330.16,186a6.41,6.41,0,0,0,3.95-8.47,7.35,7.35,0,0,0-8.59-4.7c-11.65,3.95-23,8.5-34.66,12.45-3.75,1.89-5.08,5.37-3.58,9.09s4.65,4.9,8.85,3.9" transform="translate(-38.74 -34.86)"/><path class="cls-1" d="M366.88,154.54a6.42,6.42,0,0,1-3.95-8.47,7.34,7.34,0,0,1,8.59-4.7c11.65,3.94,23,8.49,34.66,12.44,3.76,1.9,5.08,5.37,3.59,9.09s-4.66,4.9-8.86,3.91" transform="translate(-38.74 -34.86)"/><path class="cls-1" d="M366.88,186.72a6.42,6.42,0,0,1-3.95-8.47,7.34,7.34,0,0,1,8.59-4.7c11.65,3.95,23,8.5,34.66,12.44,3.76,1.9,5.08,5.37,3.59,9.1s-4.66,4.89-8.86,3.9" transform="translate(-38.74 -34.86)"/><path class="cls-1" d="M383.88,223.53c-7.27-11.51-18.25-15.37-26-15.18l-21,.29h-.19c-3.65.15-16.23,1.73-24.93,15.81-6.84,11.07-7.08,23.34-6.85,28.26l.31,29.28a43,43,0,0,0,10.19,26.74,30.63,30.63,0,0,0,22.48,11.45H338l19.76-.11.72,0a32.64,32.64,0,0,0,23.2-13.92,45.64,45.64,0,0,0,8.79-26.35l.33-28.31C391,246.59,390.75,234.39,383.88,223.53Zm-25.75-1.19c1.4,0,8.58.21,13.92,8.67,4.93,7.81,4.9,17.22,4.77,19.93l-.12,9.84H354.94V222.39Zm-34.5,9.47c5.1-8.26,12-9.09,13.51-9.17l3.8,0v38.19H319l-.09-8.35v-.28C318.71,249.42,318.65,239.87,323.63,231.81Zm2.51,68a29.31,29.31,0,0,1-7-17.94l-.08-7.08h21.85v31.4l-2.66,0A16.6,16.6,0,0,1,326.14,299.8Zm44.15-1.8h0a18.55,18.55,0,0,1-13,8.09h-2.35V274.78h21.6l-.06,4.83A31.39,31.39,0,0,1,370.29,298Z" transform="translate(-38.74 -34.86)"/><path class="cls-1" d="M338.24,339.66c-7.27-11.51-18.27-15.41-26-15.18l-21,.3H291c-3.65.15-16.23,1.74-24.92,15.81-6.84,11.07-7.09,23.34-6.86,28.26l.31,29.29a43,43,0,0,0,10.19,26.73,30.69,30.69,0,0,0,22.48,11.46h.17l19.76-.12.72,0a32.64,32.64,0,0,0,23.21-13.92h0a45.7,45.7,0,0,0,8.78-26.35l.33-28.31C345.39,362.72,345.11,350.53,338.24,339.66Zm-25.75-1.18c1.4,0,8.58.21,13.92,8.66,4.93,7.81,4.9,17.23,4.77,19.93l-.07,6.34H309.3V338.52ZM278,348c5.1-8.26,12-9.1,13.51-9.18l3.8,0v34.69h-22l0-4.84v-.28C273.07,365.55,273,356,278,348Zm2.51,68a29.32,29.32,0,0,1-7-17.95l-.11-10.58H295.3v34.91h-2.65A16.59,16.59,0,0,1,280.5,415.94Zm44.15-1.8a18.58,18.58,0,0,1-13,8.09H309.3V387.41h21.64l-.1,8.33A31.45,31.45,0,0,1,324.65,414.14Z" transform="translate(-38.74 -34.86)"/><path class="cls-1" d="M434.58,338.91c-7.28-11.51-18.26-15.4-26-15.18l-21,.29h-.19c-3.65.15-16.23,1.74-24.92,15.8-6.85,11.08-7.09,23.35-6.85,28.26l.3,29.29a43,43,0,0,0,10.2,26.74,30.61,30.61,0,0,0,22.48,11.45h.16l19.76-.11.72,0a32.66,32.66,0,0,0,23.21-13.92,45.66,45.66,0,0,0,8.78-26.35l.34-28.31C441.72,362,441.45,349.77,434.58,338.91Zm-25.75-1.19c1.39,0,8.57.21,13.91,8.67,4.94,7.81,4.91,17.22,4.78,19.93l-.08,6.33H405.63V337.77Zm-34.51,9.47c5.1-8.26,12-9.09,13.51-9.17l3.8,0v34.68h-22l-.05-4.84v-.28C369.41,364.8,369.34,355.25,374.32,347.19Zm2.51,68a29.43,29.43,0,0,1-7-17.94l-.11-10.59h21.88v34.91l-2.65,0A16.64,16.64,0,0,1,376.83,415.18Zm44.16-1.8a18.55,18.55,0,0,1-13,8.09l-2.36,0V386.65h21.64l-.1,8.34A31.45,31.45,0,0,1,421,413.38Z" transform="translate(-38.74 -34.86)"/></svg>