<?xml version="1.0" encoding="utf-8"?>
<!-- Generator: Adobe Illustrator 24.0.1, SVG Export Plug-In . SVG Version: 6.00 Build 0)  -->
<svg version="1.1" xmlns="http://www.w3.org/2000/svg" xmlns:xlink="http://www.w3.org/1999/xlink" x="0px" y="0px"
	 viewBox="0 0 1366 768" style="enable-background:new 0 0 1366 768;" xml:space="preserve">
<style type="text/css">
	.st0{fill:none;}
	.st1{display:none;}
	.st2{display:inline;fill:url(#SVGID_1_);}
	.st3{display:inline;fill:url(#SVGID_2_);}
	.st4{opacity:0.32;fill:#1F1C91;}
	.st5{display:inline;opacity:0.6;fill:#1F1C91;}
</style>
<pattern  width="80" height="80" patternUnits="userSpaceOnUse" id="sparse_x5F_dots" viewBox="0 -80 80 80" style="overflow:visible;">
	<g>
		<rect y="-80" class="st0" width="80" height="80"/>
		<path d="M0-80V0h80v-80H0z M40.5-35c-2.49,0-4.5-2.01-4.5-4.5s2.01-4.5,4.5-4.5s4.5,2.01,4.5,4.5S42.99-35,40.5-35z"/>
	</g>
</pattern>
<g id="Layer_1" class="st1">
	
		<linearGradient id="SVGID_1_" gradientUnits="userSpaceOnUse" x1="683" y1="9.094947e-13" x2="683" y2="768" gradientTransform="matrix(-1 0 0 -1 1366 768)">
		<stop  offset="0" style="stop-color:#00348D"/>
		<stop  offset="1" style="stop-color:#000000"/>
	</linearGradient>
	<polygon class="st2" points="0,0 1366,0 1366,768 0,768 	"/>
	<pattern  id="SVGID_2_" xlink:href="#sparse_x5F_dots" patternTransform="matrix(1 0 0 1 0 -64)">
	</pattern>
	<rect class="st3" width="1366" height="2416"/>
</g>
<g id="Layer_2">
	<path class="st4" d="M533.5,86.74v400.52h300V86.74H533.5z M789.08,453.3H577.68V120.5h211.41V453.3z"/>
</g>
<g id="Layer_3" class="st1">
	<rect x="613.76" y="161.55" class="st5" width="139.48" height="250.13"/>
</g>
</svg>
